<mxfile host="app.diagrams.net" agent="Mozilla/5.0 (Windows NT 10.0; Win64; x64) AppleWebKit/537.36 (KHTML, like Gecko) Chrome/127.0.0.0 Safari/537.36" version="24.7.7">
  <diagram name="Page-1" id="yuJjBMcmfF3UEyNzTdgA">
    <mxGraphModel dx="1877" dy="530" grid="1" gridSize="10" guides="1" tooltips="1" connect="1" arrows="1" fold="1" page="1" pageScale="1" pageWidth="827" pageHeight="1169" math="0" shadow="0">
      <root>
        <mxCell id="0" />
        <mxCell id="1" parent="0" />
        <object label="Administrateur&amp;nbsp;&lt;div&gt;Système&lt;/div&gt;" id="EtL3gNyit6Q9tw9ZyZdA-1">
          <mxCell style="shape=umlActor;verticalLabelPosition=bottom;verticalAlign=top;html=1;outlineConnect=0;fontStyle=1;fillColor=#dae8fc;strokeColor=#6c8ebf;" vertex="1" parent="1">
            <mxGeometry x="-742" y="235" width="40" height="70" as="geometry" />
          </mxCell>
        </object>
        <mxCell id="EtL3gNyit6Q9tw9ZyZdA-2" value="" style="rounded=0;whiteSpace=wrap;html=1;strokeColor=#6C8EBF;" vertex="1" parent="1">
          <mxGeometry x="-660" y="180" width="640" height="180" as="geometry" />
        </mxCell>
        <mxCell id="EtL3gNyit6Q9tw9ZyZdA-3" value="&lt;font style=&quot;font-size: 12px;&quot;&gt;Créer un compte en renseignant : nom, prénom, adresse email,password&lt;/font&gt;" style="ellipse;whiteSpace=wrap;html=1;fillColor=#FFFFFF;strokeColor=#6c8ebf;" vertex="1" parent="1">
          <mxGeometry x="-653" y="240" width="240" height="60" as="geometry" />
        </mxCell>
        <mxCell id="EtL3gNyit6Q9tw9ZyZdA-4" value="&lt;font style=&quot;font-size: 12px;&quot;&gt;Se connecter avec email et password&lt;/font&gt;" style="ellipse;whiteSpace=wrap;html=1;fillColor=#FFFFFF;strokeColor=#6c8ebf;" vertex="1" parent="1">
          <mxGeometry x="-270" y="240" width="240" height="60" as="geometry" />
        </mxCell>
        <mxCell id="EtL3gNyit6Q9tw9ZyZdA-5" value="&lt;b&gt;&lt;font style=&quot;font-size: 13px;&quot;&gt;S&#39;authentifier à&amp;nbsp;&lt;/font&gt;&lt;span style=&quot;font-size: 13px;&quot;&gt;l&#39;interface web de mesure de performance&lt;/span&gt;&lt;/b&gt;" style="text;strokeColor=none;align=center;fillColor=none;html=1;verticalAlign=middle;whiteSpace=wrap;rounded=0;" vertex="1" parent="1">
          <mxGeometry x="-461.25" y="190" width="242.5" height="30" as="geometry" />
        </mxCell>
        <mxCell id="EtL3gNyit6Q9tw9ZyZdA-6" value="&lt;font style=&quot;font-size: 12px;&quot;&gt;&amp;lt;&amp;lt;Include&amp;gt;&amp;gt;&lt;/font&gt;" style="html=1;verticalAlign=bottom;endArrow=open;dashed=1;endSize=8;curved=0;rounded=0;fillColor=#f8cecc;strokeColor=#b85450;" edge="1" parent="1">
          <mxGeometry x="0.1" y="-10" relative="1" as="geometry">
            <mxPoint x="-272" y="270" as="sourcePoint" />
            <mxPoint x="-412" y="270" as="targetPoint" />
            <mxPoint as="offset" />
          </mxGeometry>
        </mxCell>
        <mxCell id="EtL3gNyit6Q9tw9ZyZdA-7" value="" style="endArrow=none;html=1;rounded=0;entryX=0;entryY=0.5;entryDx=0;entryDy=0;exitX=0.5;exitY=0.5;exitDx=0;exitDy=0;exitPerimeter=0;" edge="1" parent="1" source="EtL3gNyit6Q9tw9ZyZdA-1" target="EtL3gNyit6Q9tw9ZyZdA-3">
          <mxGeometry width="50" height="50" relative="1" as="geometry">
            <mxPoint x="-730" y="260" as="sourcePoint" />
            <mxPoint x="-680" y="210" as="targetPoint" />
          </mxGeometry>
        </mxCell>
      </root>
    </mxGraphModel>
  </diagram>
</mxfile>
